<svg width="32" height="32" viewBox="0 0 32 32" fill="none" xmlns="http://www.w3.org/2000/svg">
<g clip-path="url(#clip0_1_56)">
<path d="M31.24 2.28H29.71V25.14H31.24V2.28Z" fill="white"/>
<path d="M6.85 25.14V26.66H8.38V28.19H9.9V26.66H12.95V28.19H14.47V26.66H17.52V28.19H19.04V26.66H22.09V28.19H23.62V26.66H25.14V28.19H23.62V29.71H20.57V28.19H19.04V29.71H16V28.19H14.47V29.71H11.43V28.19H9.9V29.71H6.85V28.19H5.33V29.71H2.28V31.24H25.14V29.71H26.66V26.66H29.71V25.14H6.85Z" fill="white"/>
<path d="M26.66 12.95H23.62V14.47H26.66V19.05H28.19V5.32999H26.66V12.95Z" fill="white"/>
<path d="M23.62 17.52H22.09V19.05H9.90002V20.57H26.66V19.05H23.62V17.52Z" fill="white"/>
<path d="M25.14 6.84999H22.09V9.89999H25.14V6.84999Z" fill="white"/>
<path d="M23.62 14.47H22.09V16H23.62V14.47Z" fill="white"/>
<path d="M22.09 16H20.57V17.52H22.09V16Z" fill="white"/>
<path d="M20.57 14.47H19.04V16H20.57V14.47Z" fill="white"/>
<path d="M19.04 12.95H17.52V14.47H19.04V12.95Z" fill="white"/>
<path d="M17.52 11.43H14.47V12.95H17.52V11.43Z" fill="white"/>
<path d="M14.47 12.95H12.95V14.47H14.47V12.95Z" fill="white"/>
<path d="M12.95 14.47H11.43V16H12.95V14.47Z" fill="white"/>
<path d="M26.66 3.81H9.90002V5.33H26.66V3.81Z" fill="white"/>
<path d="M11.43 17.52V16H9.9V5.32999H8.38V19.05H9.9V17.52H11.43Z" fill="white"/>
<path d="M29.71 0.759995H6.85001V2.27999H29.71V0.759995Z" fill="white"/>
<path d="M5.33 26.66H3.81V28.19H5.33V26.66Z" fill="white"/>
<path d="M3.81001 26.66V25.14H2.28001V22.09H3.81001V20.57H2.28001V17.52H3.81001V16H2.28001V12.95H3.81001V11.43H2.28001V8.38H3.81001V6.85H5.33001V8.38H3.81001V9.9H5.33001V12.95H3.81001V14.47H5.33001V17.52H3.81001V19.05H5.33001V22.09H3.81001V23.62H5.33001V25.14H6.85001V2.28H5.33001V5.33H2.28001V6.85H0.76001V29.71H2.28001V26.66H3.81001Z" fill="white"/>
</g>
<defs>
<clipPath id="clip0_1_56">
<rect width="32" height="32" fill="white"/>
</clipPath>
</defs>
</svg>
