<svg width="32" height="32" viewBox="0 0 32 32" fill="none" xmlns="http://www.w3.org/2000/svg">
<g clip-path="url(#clip0_1_75)">
<path d="M31.24 2.28H29.71V25.14H31.24V2.28Z" fill="white"/>
<path d="M25.14 31.24V29.71H26.66V26.66H29.71V25.14H6.85V26.66H8.38V28.19H9.9V26.66H12.95V28.19H14.47V26.66H17.52V28.19H19.04V26.66H22.09V28.19H23.62V26.66H25.14V28.19H23.62V29.71H20.57V28.19H19.04V29.71H16V28.19H14.47V29.71H11.43V28.19H9.9V29.71H6.85V28.19H5.33V29.71H2.28V31.24H25.14Z" fill="white"/>
<path d="M25.14 14.47H22.09V16H20.57V19.05H22.09V20.57H25.14V19.05H26.66V5.32999H22.09V6.84999H25.14V14.47Z" fill="white"/>
<path d="M22.09 6.84999H19.04V8.37999H22.09V6.84999Z" fill="white"/>
<path d="M19.04 8.37999H16V9.89999H19.04V8.37999Z" fill="white"/>
<path d="M11.43 22.09H14.47V20.57H16V9.89999H14.47V16H11.43V17.52H9.90002V20.57H11.43V22.09Z" fill="white"/>
<path d="M29.71 0.759995H6.85001V2.27999H29.71V0.759995Z" fill="white"/>
<path d="M5.33 26.66H3.81V28.19H5.33V26.66Z" fill="white"/>
<path d="M3.81001 26.66V25.14H2.28001V22.09H3.81001V20.57H2.28001V17.52H3.81001V16H2.28001V12.95H3.81001V11.43H2.28001V8.38H3.81001V6.85H5.33001V8.38H3.81001V9.9H5.33001V12.95H3.81001V14.47H5.33001V17.52H3.81001V19.05H5.33001V22.09H3.81001V23.62H5.33001V25.14H6.85001V2.28H5.33001V5.33H2.28001V6.85H0.76001V29.71H2.28001V26.66H3.81001Z" fill="white"/>
</g>
<defs>
<clipPath id="clip0_1_75">
<rect width="32" height="32" fill="white"/>
</clipPath>
</defs>
</svg>
