<svg width="32" height="32" viewBox="0 0 32 32" fill="none" xmlns="http://www.w3.org/2000/svg">
<g clip-path="url(#clip0_1_94)">
<path d="M32 25.9H30.47V28.95H32V25.9Z" fill="white"/>
<path d="M32 3.05H30.47V6.1H32V3.05Z" fill="white"/>
<path d="M30.47 28.95H28.95V30.48H30.47V28.95Z" fill="white"/>
<path d="M30.47 1.52H28.95V3.05H30.47V1.52Z" fill="white"/>
<path d="M28.95 25.9H27.43V27.43H28.95V25.9Z" fill="white"/>
<path d="M28.95 19.81H27.43V22.86H28.95V19.81Z" fill="white"/>
<path d="M28.95 4.57001H27.43V6.10001H28.95V4.57001Z" fill="white"/>
<path d="M28.95 0H25.9V1.52H28.95V0Z" fill="white"/>
<path d="M28.95 30.48H25.9V32H28.95V30.48Z" fill="white"/>
<path d="M27.43 27.43H25.9V28.95H27.43V27.43Z" fill="white"/>
<path d="M27.43 22.86H25.9V24.38H27.43V22.86Z" fill="white"/>
<path d="M27.43 18.29H25.9V19.81H27.43V18.29Z" fill="white"/>
<path d="M27.43 3.05H25.9V4.57H27.43V3.05Z" fill="white"/>
<path d="M25.9 24.38H22.85V25.9H25.9V24.38Z" fill="white"/>
<path d="M25.9 10.67H24.38V18.29H25.9V10.67Z" fill="white"/>
<path d="M24.38 21.33H22.85V22.86H24.38V21.33Z" fill="white"/>
<path d="M24.38 7.62H22.85V10.67H24.38V7.62Z" fill="white"/>
<path d="M9.14001 21.33H12.19V22.86H13.71V24.38H18.28V22.86H19.81V21.33H22.85V19.81H9.14001V21.33Z" fill="white"/>
<path d="M22.85 6.10001H21.33V7.62001H22.85V6.10001Z" fill="white"/>
<path d="M22.85 25.9H9.14001V27.43H22.85V25.9Z" fill="white"/>
<path d="M21.33 4.57001H18.28V6.10001H21.33V4.57001Z" fill="white"/>
<path d="M18.28 3.05H13.71V4.57H18.28V3.05Z" fill="white"/>
<path d="M13.71 4.57001H10.66V6.10001H13.71V4.57001Z" fill="white"/>
<path d="M10.66 6.10001H9.14001V7.62001H10.66V6.10001Z" fill="white"/>
<path d="M9.14 24.38H6.09V25.9H9.14V24.38Z" fill="white"/>
<path d="M9.14 21.33H7.62V22.86H9.14V21.33Z" fill="white"/>
<path d="M9.14 7.62H7.62V10.67H9.14V7.62Z" fill="white"/>
<path d="M7.62 10.67H6.09V18.29H7.62V10.67Z" fill="white"/>
<path d="M6.09001 27.43H4.57001V28.95H6.09001V27.43Z" fill="white"/>
<path d="M6.09001 22.86H4.57001V24.38H6.09001V22.86Z" fill="white"/>
<path d="M6.09001 18.29H4.57001V19.81H6.09001V18.29Z" fill="white"/>
<path d="M6.09001 3.05H4.57001V4.57H6.09001V3.05Z" fill="white"/>
<path d="M6.08999 0H3.04999V1.52H6.08999V0Z" fill="white"/>
<path d="M6.08999 30.48H3.04999V32H6.08999V30.48Z" fill="white"/>
<path d="M4.56999 25.9H3.04999V27.43H4.56999V25.9Z" fill="white"/>
<path d="M4.56999 19.81H3.04999V22.86H4.56999V19.81Z" fill="white"/>
<path d="M4.56999 4.57001H3.04999V6.10001H4.56999V4.57001Z" fill="white"/>
<path d="M3.04999 28.95H1.51999V30.48H3.04999V28.95Z" fill="white"/>
<path d="M3.04999 1.52H1.51999V3.05H3.04999V1.52Z" fill="white"/>
<path d="M1.52 25.9H0V28.95H1.52V25.9Z" fill="white"/>
<path d="M1.52 3.05H0V6.1H1.52V3.05Z" fill="white"/>
</g>
<defs>
<clipPath id="clip0_1_94">
<rect width="32" height="32" fill="white"/>
</clipPath>
</defs>
</svg>
