<svg width="32" height="32" viewBox="0 0 32 32" fill="none" xmlns="http://www.w3.org/2000/svg">
<path d="M30.475 12.19H28.955V19.81H30.475V12.19Z" fill="white"/>
<path d="M28.955 19.81H27.435V22.86H28.955V19.81Z" fill="white"/>
<path d="M28.955 10.67H27.435V12.19H28.955V10.67Z" fill="white"/>
<path d="M27.435 22.86H25.905V24.38H27.435V22.86Z" fill="white"/>
<path d="M25.905 24.38H24.385V25.91H25.905V24.38Z" fill="white"/>
<path d="M27.435 9.14001H24.385V10.67H27.435V9.14001Z" fill="white"/>
<path d="M24.385 25.91H22.855V27.43H24.385V25.91Z" fill="white"/>
<path d="M21.335 7.61999H18.285V9.13999H24.385V7.61999H22.855V3.04999H21.335V7.61999Z" fill="white"/>
<path d="M22.855 27.43H19.815V28.95H22.855V27.43Z" fill="white"/>
<path d="M21.335 1.51999H19.815V3.04999H21.335V1.51999Z" fill="white"/>
<path d="M18.285 18.29H16.765V16.76H18.285V15.24H13.715V16.76H12.195V19.81H13.715V21.33H15.245V25.91H16.765V21.33H18.285V19.81H19.815V16.76H18.285V18.29Z" fill="white"/>
<path d="M19.815 28.95H16.765V30.48H19.815V28.95Z" fill="white"/>
<path d="M18.285 9.14001H16.765V10.67H18.285V9.14001Z" fill="white"/>
<path d="M16.765 30.48H15.245V32H16.765V30.48Z" fill="white"/>
<path d="M16.765 10.67H15.245V12.19H16.765V10.67Z" fill="white"/>
<path d="M15.245 28.95H12.195V30.48H15.245V28.95Z" fill="white"/>
<path d="M15.245 9.14001H13.715V10.67H15.245V9.14001Z" fill="white"/>
<path d="M19.815 0H12.195V1.52H19.815V0Z" fill="white"/>
<path d="M12.195 27.43H9.14499V28.95H12.195V27.43Z" fill="white"/>
<path d="M12.195 1.51999H10.665V3.04999H12.195V1.51999Z" fill="white"/>
<path d="M13.715 9.13999V7.61999H10.665V3.04999H9.145V7.61999H7.625V9.13999H13.715Z" fill="white"/>
<path d="M9.145 25.91H7.625V27.43H9.145V25.91Z" fill="white"/>
<path d="M7.625 24.38H6.095V25.91H7.625V24.38Z" fill="white"/>
<path d="M7.62498 9.14001H4.57498V10.67H7.62498V9.14001Z" fill="white"/>
<path d="M6.09498 22.86H4.57498V24.38H6.09498V22.86Z" fill="white"/>
<path d="M4.57498 19.81H3.04498V22.86H4.57498V19.81Z" fill="white"/>
<path d="M4.57498 10.67H3.04498V12.19H4.57498V10.67Z" fill="white"/>
<path d="M3.04499 12.19H1.52499V19.81H3.04499V12.19Z" fill="white"/>
</svg>
